<?xml version="1.0" encoding="UTF-8"?>
<svg id="_图层_1" data-name="图层_1" xmlns="http://www.w3.org/2000/svg" viewBox="0 0 617.04 342.54">
  <g id="_图层_1-2" data-name="_图层_1">
    <path d="M248.17,195.89c.84-12.14-3.03-22.93-9.23-32.96-17.49-28.34-35.17-56.57-52.8-84.83-1.49-2.39-3.15-4.69-4.85-6.93-3.52-4.63-7.91-6.93-14.08-6.93-25.82-.01-86.93.89-91.28,2.68-6.55,2.69-9.03,8.29-8.35,15.81.9,9.87,1.28,19.78.66,29.67-.82,13.07,2.49,18.04,14.15,17.91,16.15-.17,67.41-.37,76.89.06,8.91.4,15.02,5.04,18.1,13.25,3.9,10.41,3.98,21.2,1.13,31.81-2.64,9.81-10.32,15.59-21.05,15.82-12.65.28-61.62-.76-73.44-.88-7.96-.08-13.92,5.02-14.81,13.07-.53,4.77-.2,9.64-.26,14.47-.26,19.5-.36,39-.85,58.49-.28,11.09-9.33,19.93-20.42,19.93-8.5,0-17,.07-25.49-.02-12.38-.13-21.63-8.03-21.89-20.46C-.17,253.72-.02,88.63.25,52.48c.1-13.42,4.27-25.68,13.27-36.03C23.53,4.93,36.84.62,51.3.52c47.98-.36,95.97-.27,143.96-.05,11.27.05,19.86,6.17,26.07,15.19,15.61,22.66,30.89,45.55,46.43,68.26,3.65,5.34,7.6,10.47,11.83,15.36,4.48,5.18,5.02,5.05,8.51-.6,18.16-29.35,55.34-89.63,55.89-90.34C348.07,3.05,353.35,0,360.33,0c79.31.14,158.62.24,237.94.4,9.41.02,15.73,8.88,16.97,20.42,2.04,18.86-7.03,32.71-18.22,46.14-19.71,23.64-39.2,47.45-58.72,71.24-23.32,28.41-46.62,56.83-69.76,85.37-1.47,1.82-2.64,5.19-1.93,7.09.68,1.85,3.85,3.56,6.12,3.86,4.41.58,88.08-.17,125.41-.11,10.22.01,18.75,8.53,18.87,18.72.11,9.28-.16,18.59-.66,27.86-.3,5.48-2.67,10.7-7.17,13.37s-11.58,1.8-16.64,1.82c-67.98.26-135.96.02-203.95.28-15.36.06-25.43-8.29-26.01-23.4-.55-14.4-.35-27.89,9.18-39.58,3.99-4.9,8.17-9.65,12.24-14.49,20.32-24.2,40.63-48.42,60.95-72.62,18.08-21.53,36.17-43.04,54.23-64.58,1.7-2.03,3.4-4.11,4.81-6.35,3.22-5.1,1.32-9.59-4.56-10.84-1.6-.34-3.31-.24-4.97-.22-31.15.29-62.31.58-93.46.89-2.83.03-5.71-.17-8.48.26-6.14.95-10.73,3.86-14.3,9.45-18.74,29.33-37.81,58.45-56.87,87.57-6.36,9.72-9.64,20.1-9.35,31.86.63,24.65.8,55.92.72,80.58-.05,14.61-3.36,22.03-11.15,34.54-14.56,23.37-36.13,33.76-63.36,32.97-6.49-.19-12.96-.8-18.09-5.56-5.84-5.42-5.43-13.72.9-18.51,3.44-2.61,6.98-5.11,10.32-7.85,11.9-9.78,16.8-22.73,16.63-37.81"/>
  </g>
</svg>